<svg viewBox="0 0 12 16" xmlns="http://www.w3.org/2000/svg">
  <path d="M6 3.5C6 4.88071 4.88071 6 3.5 6C2.11929 6 1 4.88071 1 3.5C1 2.11929 2.11929 1 3.5 1H6V3.5Z" fill="#F24E1E"/>
  <path d="M6 8.5C6 9.88071 4.88071 11 3.5 11C2.11929 11 1 9.88071 1 8.5C1 7.11929 2.11929 6 3.5 6H6V8.5Z" fill="#A259FF"/>
  <path d="M6 13.5C6 14.8807 4.88071 16 3.5 16C2.11929 16 1 14.8807 1 13.5C1 12.1193 2.11929 11 3.5 11C4.88071 11 6 12.1193 6 13.5Z" fill="#0ACF83"/>
  <path d="M11 3.5C11 4.88071 9.88071 6 8.5 6C7.11929 6 6 4.88071 6 3.5C6 2.11929 7.11929 1 8.5 1C9.88071 1 11 2.11929 11 3.5Z" fill="#FF7262"/>
  <path d="M11 8.5C11 9.88071 9.88071 11 8.5 11C7.11929 11 6 9.88071 6 8.5C6 7.11929 7.11929 6 8.5 6C9.88071 6 11 7.11929 11 8.5Z" fill="#1ABC9C"/>
</svg>
